<?xml version="1.0" standalone="no"?>
<!DOCTYPE svg PUBLIC "-//W3C//DTD SVG 20010904//EN"
 "http://www.w3.org/TR/2001/REC-SVG-20010904/DTD/svg10.dtd">
<svg version="1.0" xmlns="http://www.w3.org/2000/svg"
 width="512.000000pt" height="512.000000pt" viewBox="0 0 512.000000 512.000000"
 preserveAspectRatio="xMidYMid meet">
<metadata>
Created by potrace 1.14, written by Peter Selinger 2001-2017
</metadata>
<g transform="translate(0.000000,512.000000) scale(0.100000,-0.100000)"
fill="#000000" stroke="none">
<path d="M0 2560 l0 -2560 2560 0 2560 0 0 2560 0 2560 -2560 0 -2560 0 0
-2560z m1577 1426 c238 -77 362 -257 363 -526 0 -147 -40 -256 -129 -348 -68
-71 -142 -117 -238 -148 l-86 -28 39 -34 c139 -123 258 -240 299 -294 60 -80
119 -197 146 -290 29 -101 37 -324 16 -425 -68 -318 -331 -580 -704 -702 -147
-48 -251 -65 -403 -64 -179 1 -299 26 -427 88 -166 81 -294 232 -338 401 -39
149 -37 333 6 462 61 186 201 372 324 432 91 44 218 36 252 -16 21 -32 12
-118 -30 -284 -38 -153 -44 -329 -14 -415 48 -140 173 -196 367 -166 145 22
251 95 307 209 24 49 28 72 31 164 8 220 -42 296 -445 678 -125 119 -187 199
-243 315 -58 122 -74 202 -67 348 13 286 134 475 385 601 119 60 203 76 367
72 118 -3 153 -8 222 -30z m3255 -4 c98 -61 114 -285 37 -517 -120 -361 -428
-766 -742 -976 -51 -34 -92 -64 -92 -68 0 -3 15 -43 33 -89 18 -45 59 -183 92
-305 66 -247 77 -281 114 -354 37 -73 69 -96 129 -90 70 6 134 55 353 269 117
115 200 189 213 190 16 2 30 -6 45 -25 18 -25 21 -42 21 -125 0 -92 -2 -101
-38 -176 -151 -317 -523 -576 -828 -576 -118 0 -196 28 -264 95 -88 86 -128
198 -165 460 -61 443 -72 515 -86 575 l-14 65 -58 17 c-150 46 -232 178 -172
276 29 47 110 82 203 88 67 5 93 1 194 -31 18 -6 32 6 90 79 175 223 284 436
529 1036 32 79 68 155 79 168 25 29 99 42 216 38 58 -2 85 -8 111 -24z m-1231
-125 c18 -12 40 -34 47 -47 28 -52 -8 -243 -57 -311 -11 -14 -27 -66 -36 -115
-25 -134 -56 -251 -161 -606 -197 -669 -276 -1032 -290 -1343 -3 -71 -10 -147
-15 -167 -27 -109 -155 -167 -376 -171 l-105 -2 -28 32 c-37 41 -45 99 -44
318 0 177 13 292 60 525 82 411 257 1007 394 1344 28 68 50 127 50 131 0 12
-189 -3 -278 -21 -166 -34 -274 -87 -397 -193 -72 -62 -106 -65 -141 -14 -64
96 -22 279 88 378 176 158 648 276 1134 283 111 2 124 0 155 -21z"/>
<path d="M1213 3635 c-59 -16 -116 -50 -152 -88 -24 -26 -24 -26 -6 -78 27
-85 80 -182 136 -251 72 -87 161 -178 176 -178 17 0 91 88 136 162 74 122 101
280 61 349 -32 55 -116 92 -217 96 -51 2 -102 -3 -134 -12z"/>
</g>
</svg>
